HIERARCHY
ROOT Hips
{
	OFFSET	0.00	0.00	0.00
	CHANNELS 6 Xposition Yposition Zposition Zrotation Xrotation Yrotation
	JOINT Spine
	{
		OFFSET	 0.00	0.01	 0.00
		CHANNELS 3 Zrotation Xrotation Yrotation
		JOINT Spine1
		{
			OFFSET	 0.00	 2.45913012437421	 0.00
			CHANNELS 3 Zrotation Xrotation Yrotation
            JOINT Neck
            {
                OFFSET	 0.00	 2.48462964506057	 0.00
                CHANNELS 3 Zrotation Xrotation Yrotation
                JOINT Head
                {
                    OFFSET	 0.00	 0.927524780924562	 0.00
                    CHANNELS 3 Zrotation Xrotation Yrotation
                    End Site 
                    {
                        OFFSET	 0.00	 1.14999962169752	 0.00
                    }
                }
            }
			JOINT LeftShoulder
			{
				OFFSET	 0.00	 2.48462964506057	 0.00
				CHANNELS 3 Zrotation Xrotation Yrotation
				JOINT LeftUpArm
				{
					OFFSET	 0.00	 1.24881979654096	 0.00
					CHANNELS 3 Zrotation Xrotation Yrotation
					JOINT LeftForeArm
					{
						OFFSET	 0.00	2.59758046908119	 0.00
						CHANNELS 3 Zrotation Xrotation Yrotation
						JOINT LeftHand
						{
							OFFSET	 0.00	2.45542024364365	 0.00
							CHANNELS 3 Zrotation Xrotation Yrotation
							JOINT LeftHandThumb 
							{
								OFFSET	 0.00	0.00	 0.00
								CHANNELS 3 Zrotation Xrotation Yrotation
								End Site
								{
									OFFSET	 0.00	0.00	1.00000003353624
								}
							}
							JOINT L_Wrist_End 
							{
								OFFSET	 0.00	0.99999967115358	 0.00
								CHANNELS 3 Zrotation Xrotation Yrotation
								End Site 
								{
									OFFSET	 0.00	 0.00	 0.00
								}
							}
						}
					}
				}
			}
			JOINT RightShoulder
			{
				OFFSET	 0.00	 2.48462964506057	 0.00
				CHANNELS 3 Zrotation Xrotation Yrotation
				JOINT RightUpArm
				{
					OFFSET	 0.00	 1.24881979654096	 0.00
					CHANNELS 3 Zrotation Xrotation Yrotation
					JOINT RightForeArm
					{
						OFFSET	 0.00	2.59758046908119	 0.00
						CHANNELS 3 Zrotation Xrotation Yrotation
						JOINT RightHand
						{
							OFFSET	 0.00	2.45542024364365	 0.00
							CHANNELS 3 Zrotation Xrotation Yrotation
							JOINT RightHandThumb 
							{
								OFFSET	 0.00	0.00	 0.00
								CHANNELS 3 Zrotation Xrotation Yrotation
								End Site
								{
									OFFSET	 0.00	0.00	1.00000003353624
								}
							}
							JOINT R_Wrist_End 
							{
								OFFSET	 0.00	0.99999967115358	 0.00
								CHANNELS 3 Zrotation Xrotation Yrotation
								End Site 
								{
									OFFSET	 0.00	 0.00	 0.00
								}
							}
						}
					}
				}
			}
		}
	}
	JOINT LeftUpLeg
	{
		OFFSET	 1.2719394002717	 0.00	 0.00
		CHANNELS 3 Zrotation Xrotation Yrotation
		JOINT LeftLowLeg
		{
			OFFSET	 0.00	-4.3429100912261	 0.00
			CHANNELS 3 Zrotation Xrotation Yrotation
			JOINT LeftFoot
			{
				OFFSET	 0.00	-4.48767017425826	 0.00
				CHANNELS 3 Zrotation Xrotation Yrotation
				JOINT LeftToeBase
                {
                    OFFSET	 0.00	0.00	 1.51507020887566
                    CHANNELS 3 Zrotation Xrotation Yrotation
                    End Site 
                    {
                        OFFSET	 0.00	0.00	 0.75000010571191
                    }
                }
			}
		}
	}
	JOINT RightUpLeg
	{
		OFFSET	 -1.2719393604653	 0.00	 0.00
		CHANNELS 3 Zrotation Xrotation Yrotation
		JOINT RightLowLeg
		{
			OFFSET	 0.00	-4.3429100912261	 0.00
			CHANNELS 3 Zrotation Xrotation Yrotation
			JOINT RightFoot
			{
				OFFSET	 0.00	-4.48767017425826	 0.00
				CHANNELS 3 Zrotation Xrotation Yrotation
				JOINT RightToeBase
                {
                    OFFSET	 0.00	0.00	 1.51507020887566
                    CHANNELS 3 Zrotation Xrotation Yrotation
                    End Site 
                    {
                        OFFSET	 0.00	0.00	 0.749999965609858
                    }
                }   
			}
		}
	}
}
MOTION 
Frames:	13 
Frame Time: 0.02 
 2.7594500732421876 1.223730010986328 9.808330078125 -153.085 82.0318 157.152 2.45448 -8.47785 -2.23885 0.324041 2.95525 -2.49595 -4.28521 32.9549 3.48737 15.3238 -48.5633 9.39576 -90.970436 -14.5508 -3.30098 -10.8921 5.65964 -29.678 0.0 19.0852 0.0 29.9634 -6.80571 22.4073 0.0 0.0 0.0 0.0 0.0 0.0 98.78881 -11.1117 0.591942 8.68042 1.61169 35.9375 0.0 22.0216 0.0 -20.1367 -3.63122 -28.2358 0.0 0.0 0.0 0.0 0.0 0.0 4.31089 -5.84441 -1.59713 0.0 7.26847 0.0 8.31076 7.48461 1.07532 0.0 -36.8282 0.0 3.33981 -3.09282 5.92112 0.0 6.53781 0.0 9.61154 8.53971 -7.80712 0.0 -27.900799 0.0 
  2.7594500732421876 1.223730010986328 9.808330078125 -153.085 82.0318 157.152 2.45448 -8.47785 -2.23885 0.324041 2.95525 -2.49595 -4.28521 32.9549 3.48737 15.3238 -48.5633 9.39576 -90.970436 -14.5508 -3.30098 -10.8921 5.65964 -29.678 0.0 19.0852 0.0 29.9634 -6.80571 22.4073 0.0 0.0 0.0 0.0 0.0 0.0 98.78881 -11.1117 0.591942 8.68042 1.61169 35.9375 0.0 22.0216 0.0 -20.1367 -3.63122 -28.2358 0.0 0.0 0.0 0.0 0.0 0.0 4.31089 -5.84441 -1.59713 0.0 7.26847 0.0 8.31076 7.48461 1.07532 0.0 -36.8282 0.0 3.33981 -3.09282 5.92112 0.0 6.53781 0.0 9.61154 8.53971 -7.80712 0.0 -27.900799 0.0 
  2.759949951171875 1.224290008544922 9.808489990234374 -153.157 82.0158 157.218 2.43522 -8.47953 -2.24346 0.363623 2.94037 -2.49579 -4.31369 32.9402 3.51176 15.3121 -48.555 9.35386 -90.98787 -14.5581 -3.3215 -10.9095 5.63633 -29.8055 0.0 19.1026 0.0 29.7916 -6.61459 22.52 0.0 0.0 0.0 0.0 0.0 0.0 98.755844 -11.1084 0.584131 8.71548 1.58493 35.954 0.0 22.0203 0.0 -20.1532 -3.62545 -28.2329 0.0 0.0 0.0 0.0 0.0 0.0 4.30438 -5.86519 -1.60055 0.0 7.26921 0.0 8.31468 7.48968 1.08606 0.0 -36.8082 0.0 3.33501 -3.11762 5.93813 0.0 6.54151 0.0 9.61699 8.54222 -7.81745 0.0 -27.9231 0.0 
  2.7602899169921873 1.2244699859619141 9.8085498046875 -153.159 82.0131 157.205 2.44146 -8.4795 -2.24037 0.35757 2.94553 -2.49417 -4.32165 32.9128 3.52759 15.3252 -48.5458 9.3393 -91.00264 -14.5473 -3.32555 -10.854 5.60363 -29.6464 0.0 19.0811 0.0 29.759 -6.60946 22.5234 0.0 0.0 0.0 0.0 0.0 0.0 98.76959 -11.1254 0.580074 8.73139 1.59545 35.9792 0.0 22.0402 0.0 -20.181 -3.63949 -28.217 0.0 0.0 0.0 0.0 0.0 0.0 4.30522 -5.86126 -1.59092 0.0 7.26138 0.0 8.31554 7.49005 1.08747 0.0 -36.8108 0.0 3.33387 -3.12561 5.92987 0.0 6.54655 0.0 9.61016 8.54714 -7.79924 0.0 -27.903801 0.0 
  2.7609799194335936 1.224540023803711 9.808480224609376 -153.137 82.012 157.154 2.45473 -8.47821 -2.23571 0.347059 2.95503 -2.49265 -4.34218 32.8876 3.5478 15.3536 -48.5571 9.30178 -91.00738 -14.5262 -3.2975 -10.8058 5.55274 -29.5776 0.0 19.0496 0.0 29.7876 -6.6361 22.4084 0.0 0.0 0.0 0.0 0.0 0.0 98.77622 -11.1472 0.591594 8.78996 1.62036 36.0004 0.0 22.0541 0.0 -20.1084 -3.62061 -28.1728 0.0 0.0 0.0 0.0 0.0 0.0 4.30826 -5.85967 -1.57216 0.0 7.27505 0.0 8.29519 7.4833 1.10334 0.0 -36.8227 0.0 3.33478 -3.12476 5.95457 0.0 6.53823 0.0 9.61485 8.55788 -7.79988 0.0 -27.9035 0.0 
  2.761300048828125 1.224290008544922 9.80844970703125 -153.126 82.0199 157.122 2.4539 -8.47357 -2.22694 0.344346 2.95939 -2.48361 -4.30163 32.8852 3.4903 15.3374 -48.5526 9.30492 -90.99192 -14.5278 -3.30629 -10.8429 5.55605 -29.7347 0.0 19.0708 0.0 29.804 -6.61925 22.4289 0.0 0.0 0.0 0.0 0.0 0.0 98.79283 -11.1503 0.604316 8.78338 1.62103 35.9583 0.0 22.0206 0.0 -20.0829 -3.65639 -28.2224 0.0 0.0 0.0 0.0 0.0 0.0 4.30408 -5.84451 -1.58229 0.0 7.27245 0.0 8.30525 7.47692 1.12303 0.0 -36.8018 0.0 3.32942 -3.11401 5.93876 0.0 6.52997 0.0 9.613 8.56823 -7.76265 0.0 -27.9166 0.0 
  2.761300048828125 1.224290008544922 9.80844970703125 -153.126 82.0199 157.122 2.4539 -8.47357 -2.22694 0.344346 2.95939 -2.48361 -4.30163 32.8852 3.4903 15.3374 -48.5526 9.30492 -90.99192 -14.5278 -3.30629 -10.8429 5.55605 -29.7347 0.0 19.0708 0.0 29.804 -6.61925 22.4289 0.0 0.0 0.0 0.0 0.0 0.0 98.79283 -11.1503 0.604316 8.78338 1.62103 35.9583 0.0 22.0206 0.0 -20.0829 -3.65639 -28.2224 0.0 0.0 0.0 0.0 0.0 0.0 4.30408 -5.84451 -1.58229 0.0 7.27245 0.0 8.30525 7.47692 1.12303 0.0 -36.8018 0.0 3.32942 -3.11401 5.93876 0.0 6.52997 0.0 9.613 8.56823 -7.76265 0.0 -27.9166 0.0 
  2.761610107421875 1.2239499664306641 9.80844970703125 -153.137 82.024 157.1 2.44029 -8.4744 -2.2152 0.370144 2.95654 -2.46833 -4.30543 32.9006 3.4758 15.3188 -48.5528 9.27489 -91.01256 -14.5328 -3.32071 -10.8416 5.5663 -29.8044 0.0 19.0861 0.0 29.7829 -6.61019 22.4889 0.0 0.0 0.0 0.0 0.0 0.0 98.79797 -11.1355 0.560729 8.77942 1.60165 35.9637 0.0 22.0068 0.0 -20.1121 -3.6773 -28.2001 0.0 0.0 0.0 0.0 0.0 0.0 4.30179 -5.82659 -1.56382 0.0 7.26255 0.0 8.30764 7.47652 1.13367 0.0 -36.7972 0.0 3.32678 -3.11258 5.9452 0.0 6.53123 0.0 9.59346 8.574289 -7.7508 0.0 -27.8957 0.0 
  2.7620199584960936 1.223290023803711 9.808400268554687 -153.145 82.0208 157.082 2.44634 -8.49549 -2.2047 0.367698 2.97244 -2.45909 -4.30841 32.9177 3.47918 15.3247 -48.5593 9.28111 -91.0325 -14.5343 -3.33026 -10.785 5.57112 -29.64 0.0 19.0462 0.0 29.7702 -6.61204 22.4745 0.0 0.0 0.0 0.0 0.0 0.0 98.80041 -11.1474 0.561002 8.81557 1.61387 35.9974 0.0 22.0258 0.0 -20.1635 -3.65868 -28.2014 0.0 0.0 0.0 0.0 0.0 0.0 4.30141 -5.81111 -1.55448 0.0 7.24624 0.0 8.31103 7.47775 1.15166 0.0 -36.8092 0.0 3.32464 -3.1163 5.94754 0.0 6.53289 0.0 9.58857 8.58213 -7.72781 0.0 -27.925201 0.0 
  2.762539978027344 1.223000030517578 9.808419799804687 -153.203 82.0073 157.115 2.45543 -8.52297 -2.1983 0.357695 2.98048 -2.45472 -4.31998 32.9362 3.50178 15.3349 -48.5588 9.29661 -91.03679 -14.5237 -3.30538 -10.7544 5.55259 -29.5836 0.0 19.0253 0.0 29.783 -6.60914 22.42 0.0 0.0 0.0 0.0 0.0 0.0 98.81376 -11.162 0.583649 8.83321 1.64508 35.9928 0.0 22.0294 0.0 -20.1691 -3.66202 -28.2318 0.0 0.0 0.0 0.0 0.0 0.0 4.29156 -5.81538 -1.55799 0.0 7.23809 0.0 8.2822 7.49491 1.19138 0.0 -36.8345 0.0 3.32161 -3.13773 5.97096 0.0 6.54349 0.0 9.60802 8.57697 -7.72295 0.0 -27.914501 0.0 
  2.762770080566406 1.2226599884033202 9.808410034179687 -153.174 82.0066 157.086 2.45765 -8.52378 -2.19694 0.362927 2.97248 -2.45378 -4.30865 32.947 3.48841 15.3258 -48.5529 9.30704 -91.03017 -14.5236 -3.28484 -10.7792 5.56399 -29.7031 0.0 19.047 0.0 29.7955 -6.59567 22.4388 0.0 0.0 0.0 0.0 0.0 0.0 98.82709 -11.1685 0.581894 8.8266 1.64346 35.977 0.0 22.0138 0.0 -20.1454 -3.66641 -28.2194 0.0 0.0 0.0 0.0 0.0 0.0 4.30183 -5.81562 -1.52223 0.0 7.24563 0.0 8.3153 7.46993 1.14575 0.0 -36.7947 0.0 3.32419 -3.13473 5.9578 0.0 6.54233 0.0 9.59397 8.583321 -7.71719 0.0 -27.9202 0.0 
  2.7631600952148436 1.2221499633789064 9.80843017578125 -153.102 82.018 157.029 2.42932 -8.53094 -2.22778 0.436403 2.99869 -2.47805 -4.39407 32.9344 3.58651 15.3052 -48.5525 9.26414 -91.08275 -14.5631 -3.32515 -10.7901 5.57027 -29.7714 0.0 19.0768 0.0 29.82 -6.56624 22.4507 0.0 0.0 0.0 0.0 0.0 0.0 98.79755 -11.1102 0.580912 8.81496 1.60544 35.9231 0.0 21.9848 0.0 -20.1497 -3.65903 -28.1481 0.0 0.0 0.0 0.0 0.0 0.0 4.30434 -5.79607 -1.5446 0.0 7.23555 0.0 8.30851 7.47209 1.1425 0.0 -36.795998 0.0 3.32769 -3.11071 5.96891 0.0 6.53362 0.0 9.60659 8.58317 -7.74391 0.0 -27.8973 0.0 
  2.76375 1.222490005493164 9.808489990234374 -153.105 82.016 157.03 2.43587 -8.52673 -2.22089 0.447587 2.9933 -2.47249 -4.40132 32.9155 3.58854 15.2786 -48.5476 9.25002 -91.09504 -14.5586 -3.33598 -10.7903 5.57245 -29.7152 0.0 19.0859 0.0 29.8015 -6.55815 22.4556 0.0 0.0 0.0 0.0 0.0 0.0 98.79287 -11.1044 0.582292 8.81254 1.56485 35.8979 0.0 21.9902 0.0 -20.1575 -3.6585 -28.1132 0.0 0.0 0.0 0.0 0.0 0.0 4.29331 -5.79756 -1.57081 0.0 7.22874 0.0 8.26748 7.49526 1.18178 0.0 -36.8226 0.0 3.32521 -3.1137 5.97713 0.0 6.53131 0.0 9.61131 8.58346 -7.75373 0.0 -27.899399 0.0 
